<svg width="75" height="78" viewBox="0 0 75 78" fill="none" xmlns="http://www.w3.org/2000/svg">
<path d="M4.16016 39.0234L6.62109 17.3438H30.5273V24.4043H13.5645L12.5098 33.5742C14.5215 32.5 16.6602 31.9629 18.9258 31.9629C22.9883 31.9629 26.1719 33.2227 28.4766 35.7422C30.7813 38.2617 31.9336 41.7871 31.9336 46.3184C31.9336 49.0723 31.3477 51.543 30.1758 53.7305C29.0234 55.8984 27.3633 57.5879 25.1953 58.7988C23.0273 59.9902 20.4688 60.5859 17.5195 60.5859C14.9414 60.5859 12.5488 60.0684 10.3418 59.0332C8.13477 57.9785 6.38672 56.5039 5.09766 54.6094C3.82812 52.7148 3.1543 50.5566 3.07617 48.1348H11.4551C11.6309 49.9121 12.2461 51.2988 13.3008 52.2949C14.375 53.2715 15.7715 53.7598 17.4902 53.7598C19.4043 53.7598 20.8789 53.0762 21.9141 51.709C22.9492 50.3223 23.4668 48.3691 23.4668 45.8496C23.4668 43.4277 22.8711 41.5723 21.6797 40.2832C20.4883 38.9941 18.7988 38.3496 16.6113 38.3496C14.5996 38.3496 12.9688 38.877 11.7188 39.9316L10.8984 40.6934L4.16016 39.0234Z" fill="#F0A446"/>
<path d="M51.168 42.8906L46.5977 47.8125V60H37.8086V17.3438H46.5977V36.6797L50.4648 31.377L61.334 17.3438H72.1445L56.998 36.2988L72.584 60H62.125L51.168 42.8906Z" fill="#F0A446"/>
</svg>
