<svg width="136" height="78" viewBox="0 0 136 78" fill="none" xmlns="http://www.w3.org/2000/svg">
<path d="M27.9492 43.9453H32.7832V50.7715H27.9492V60H19.4824V50.7715H1.99219L1.61133 45.4395L19.3945 17.3438H27.9492V43.9453ZM10.0488 43.9453H19.4824V28.8867L18.9258 29.8535L10.0488 43.9453ZM66.0645 42.3633C66.0645 48.2617 64.8438 52.7734 62.4023 55.8984C59.9609 59.0234 56.3867 60.5859 51.6797 60.5859C47.0312 60.5859 43.4766 59.0527 41.0156 55.9863C38.5547 52.9199 37.2949 48.5254 37.2363 42.8027V34.9512C37.2363 28.9941 38.4668 24.4727 40.9277 21.3867C43.4082 18.3008 46.9727 16.7578 51.6211 16.7578C56.2695 16.7578 59.8242 18.291 62.2852 21.3574C64.7461 24.4043 66.0059 28.7891 66.0645 34.5117V42.3633ZM57.5977 33.75C57.5977 30.2148 57.1094 27.6465 56.1328 26.0449C55.1758 24.4238 53.6719 23.6133 51.6211 23.6133C49.6289 23.6133 48.1543 24.3848 47.1973 25.9277C46.2598 27.4512 45.7617 29.8438 45.7031 33.1055V43.4766C45.7031 46.9531 46.1719 49.541 47.1094 51.2402C48.0664 52.9199 49.5898 53.7598 51.6797 53.7598C53.75 53.7598 55.2441 52.9492 56.1621 51.3281C57.0801 49.707 57.5586 47.2266 57.5977 43.8867V33.75Z" fill="#F0A446"/>
<path d="M78.7832 25.5469C78.7832 22.9297 79.6328 20.8105 81.332 19.1895C83.0312 17.5488 85.2578 16.7285 88.0117 16.7285C90.8047 16.7285 93.0508 17.5391 94.75 19.1602C96.4492 20.7617 97.2988 22.9395 97.2988 25.6934V27.8027C97.2988 30.4395 96.4492 32.5586 94.75 34.1602C93.0508 35.7617 90.8242 36.5625 88.0703 36.5625C85.2969 36.5625 83.0508 35.7617 81.332 34.1602C79.6328 32.5391 78.7832 30.3613 78.7832 27.627V25.5469ZM84.4082 27.8027C84.4082 28.9746 84.7402 29.9219 85.4043 30.6445C86.0879 31.3477 86.9766 31.6992 88.0703 31.6992C89.1641 31.6992 90.0332 31.3379 90.6777 30.6152C91.3223 29.8926 91.6445 28.9258 91.6445 27.7148V25.5469C91.6445 24.375 91.3223 23.4277 90.6777 22.7051C90.0332 21.9824 89.1445 21.6211 88.0117 21.6211C86.9375 21.6211 86.0684 21.9824 85.4043 22.7051C84.7402 23.4082 84.4082 24.3945 84.4082 25.6641V27.8027ZM99.1738 49.541C99.1738 46.9043 100.033 44.7852 101.752 43.1836C103.471 41.5625 105.697 40.752 108.432 40.752C111.205 40.752 113.441 41.5527 115.141 43.1543C116.859 44.7363 117.719 46.9238 117.719 49.7168V51.8262C117.719 54.4434 116.879 56.5625 115.199 58.1836C113.52 59.7852 111.283 60.5859 108.49 60.5859C105.678 60.5859 103.422 59.7754 101.723 58.1543C100.023 56.5332 99.1738 54.3848 99.1738 51.709V49.541ZM104.799 51.8262C104.799 52.9004 105.15 53.8184 105.854 54.5801C106.557 55.3418 107.436 55.7227 108.49 55.7227C110.873 55.7227 112.064 54.4043 112.064 51.7676V49.541C112.064 48.3691 111.732 47.4316 111.068 46.7285C110.404 46.0059 109.525 45.6445 108.432 45.6445C107.338 45.6445 106.459 46.0059 105.795 46.7285C105.131 47.4316 104.799 48.3984 104.799 49.6289V51.8262ZM89.7402 56.8066L85.6094 54.5801L106.439 21.2402L110.57 23.4668L89.7402 56.8066Z" fill="#F0A446"/>
</svg>
