<svg width="30" height="45" viewBox="0 0 30 45" fill="none" xmlns="http://www.w3.org/2000/svg">
<path d="M29.6113 26.3633C29.6113 32.2617 28.3906 36.7734 25.9492 39.8984C23.5078 43.0234 19.9336 44.5859 15.2266 44.5859C10.5781 44.5859 7.02344 43.0527 4.5625 39.9863C2.10156 36.9199 0.841797 32.5254 0.783203 26.8027V18.9512C0.783203 12.9941 2.01367 8.47266 4.47461 5.38672C6.95508 2.30078 10.5195 0.757812 15.168 0.757812C19.8164 0.757812 23.3711 2.29102 25.832 5.35742C28.293 8.4043 29.5527 12.7891 29.6113 18.5117V26.3633ZM21.1445 17.75C21.1445 14.2148 20.6562 11.6465 19.6797 10.0449C18.7227 8.42383 17.2188 7.61328 15.168 7.61328C13.1758 7.61328 11.7012 8.38477 10.7441 9.92773C9.80664 11.4512 9.30859 13.8438 9.25 17.1055V27.4766C9.25 30.9531 9.71875 33.541 10.6562 35.2402C11.6133 36.9199 13.1367 37.7598 15.2266 37.7598C17.2969 37.7598 18.791 36.9492 19.709 35.3281C20.627 33.707 21.1055 31.2266 21.1445 27.8867V17.75Z" fill="#F0A446"/>
</svg>
